<?xml version="1.0" encoding="utf-8"?>
<!-- Generator: Adobe Illustrator 27.4.0, SVG Export Plug-In . SVG Version: 6.00 Build 0)  -->
<svg version="1.2" baseProfile="tiny-ps" id="Layer_1" xmlns="http://www.w3.org/2000/svg" xmlns:xlink="http://www.w3.org/1999/xlink" viewBox="0 0 80 80" xml:space="preserve">
<title>KB Adhesives</title>
<rect fill="#FFFFFF" width="80" height="80"/>
<linearGradient id="SVGID_1_" gradientUnits="userSpaceOnUse" x1="28.1424" y1="51.7169" x2="36.2043" y2="23.5286">
	<stop  offset="0" style="stop-color:#E95A0C"/>
	<stop  offset="1" style="stop-color:#CC1719"/>
</linearGradient>
<polygon fill="url(#SVGID_1_)" points="22.4,53.1 33.1,53.1 41.2,25 30.4,25 "/>
<linearGradient id="SVGID_00000064339325516049024590000013807775200445244330_" gradientUnits="userSpaceOnUse" x1="27.3377" y1="11.5789" x2="19.2408" y2="39.9962">
	<stop  offset="0" style="stop-color:#E95A0C"/>
	<stop  offset="1" style="stop-color:#CC1719"/>
</linearGradient>
<polygon fill="url(#SVGID_00000064339325516049024590000013807775200445244330_)" points="13.5,41.2 24.3,41.2 32.3,13 21.6,13 "/>
<path fill="#575756" d="M50.4,38.5h5l-6.8,6.7l2.8,7.9h-5l-2.6-7.8h0l-2.2,7.8h-4.1l4.2-14.6h4.1l-1.9,6.4h0L50.4,38.5z"/>
<path fill="#575756" d="M52,53.1l4.2-14.6h7.2c2.1,0,3.3,1.7,2.9,4c-0.3,1.6-1.3,3-3,3.3l0,0c1.9,0.3,2.8,1.6,2.2,3.7
	c-0.9,3.4-3.7,3.6-5.7,3.6H52z M59.3,50.3c1,0,1.9-0.6,2.2-1.5c0.2-0.8-0.1-1.6-1-1.6h-2.7l-0.9,3.2H59.3z M58.6,44.3l2.1,0
	c1.1,0,1.9-0.4,2.2-1.5c0.2-0.8-0.3-1.4-1.3-1.4h-2.2L58.6,44.3z"/>
<path fill="#808080" stroke="#808080" stroke-width="0.25" stroke-miterlimit="10" d="M20.2,63.4l-0.7,1.8h-1l3-8h1.2l2.9,8h-1.1
	l-0.7-1.8H20.2z M22,58.6l-1.5,4h3L22,58.6z"/>
<path fill="#808080" stroke="#808080" stroke-width="0.25" stroke-miterlimit="10" d="M30.4,57.3h0.9v8h-0.9v-0.9
	c-0.6,0.8-1.1,1.1-2,1.1c-1.5,0-2.6-1.2-2.6-2.9s1.1-2.9,2.6-2.9c0.8,0,1.4,0.3,2,1V57.3z M26.8,62.6c0,1.2,0.7,2.1,1.8,2.1
	c1.1,0,1.8-0.9,1.8-2.1c0-1.2-0.7-2.1-1.8-2.1C27.5,60.4,26.8,61.3,26.8,62.6z"/>
<path fill="#808080" stroke="#808080" stroke-width="0.25" stroke-miterlimit="10" d="M33.7,60.5c0.5-0.6,1-0.9,1.7-0.9
	c0.5,0,1,0.2,1.3,0.5c0.3,0.3,0.4,0.7,0.4,1.4v3.7h-0.9v-3.7c0-0.8-0.4-1.2-1-1.2c-0.4,0-0.8,0.2-1.1,0.5c-0.3,0.3-0.4,0.6-0.4,1.1
	v3.2h-0.9v-8h0.9V60.5z"/>
<path fill="#808080" stroke="#808080" stroke-width="0.25" stroke-miterlimit="10" d="M39.1,62.8c0,0.5,0.1,0.7,0.4,1
	c0.4,0.5,0.9,0.8,1.5,0.8c0.7,0,1.3-0.4,1.7-0.9l0.8,0.3c-0.5,0.9-1.4,1.5-2.5,1.5c-1.6,0-2.8-1.2-2.8-2.9c0-1.7,1.2-2.9,2.8-2.9
	c1.6,0,2.8,1.2,2.8,2.8c0,0.1,0,0.2,0,0.4H39.1z M42.7,62.1c0-0.4-0.1-0.7-0.3-0.9c-0.3-0.5-0.9-0.8-1.5-0.8c-0.6,0-1.2,0.3-1.5,0.8
	c-0.2,0.3-0.2,0.5-0.3,0.9H42.7z"/>
<path fill="#808080" stroke="#808080" stroke-width="0.25" stroke-miterlimit="10" d="M47.3,61.3L47.3,61.3c0-0.6-0.4-0.9-1.1-0.9
	c-0.6,0-1,0.3-1,0.8c0,0.5,0.2,0.7,1.2,0.9c0.7,0.2,1.1,0.4,1.3,0.6c0.3,0.3,0.4,0.7,0.4,1.1c0,1-0.8,1.6-2,1.6
	c-1.3,0-2-0.6-2.1-1.7h0.9c0.1,0.6,0.5,1,1.2,1c0.6,0,1-0.3,1-0.8c0-0.5-0.3-0.7-1.3-1c-1.2-0.3-1.7-0.8-1.7-1.7
	c0-1,0.8-1.6,1.9-1.6c1.2,0,1.9,0.6,1.9,1.6H47.3z"/>
<path fill="#808080" stroke="#808080" stroke-width="0.25" stroke-miterlimit="10" d="M50.5,58.2c0,0.3-0.3,0.6-0.6,0.6
	s-0.6-0.3-0.6-0.6s0.3-0.6,0.6-0.6C50.2,57.6,50.5,57.9,50.5,58.2z M50.3,65.3h-0.9v-5.5h0.9V65.3z"/>
<path fill="#808080" stroke="#808080" stroke-width="0.25" stroke-miterlimit="10" d="M56.1,59.8l-2.1,5.5h-1l-2-5.5h1l1.6,4.2
	l1.6-4.2H56.1z"/>
<path fill="#808080" stroke="#808080" stroke-width="0.25" stroke-miterlimit="10" d="M57.3,62.8c0,0.5,0.1,0.7,0.4,1
	c0.4,0.5,0.9,0.8,1.5,0.8c0.7,0,1.3-0.4,1.7-0.9l0.8,0.3c-0.5,0.9-1.4,1.5-2.5,1.5c-1.6,0-2.8-1.2-2.8-2.9c0-1.7,1.2-2.9,2.8-2.9
	c1.6,0,2.8,1.2,2.8,2.8c0,0.1,0,0.2,0,0.4H57.3z M60.9,62.1c0-0.4-0.1-0.7-0.3-0.9c-0.3-0.5-0.9-0.8-1.5-0.8c-0.6,0-1.2,0.3-1.5,0.8
	c-0.2,0.3-0.2,0.5-0.3,0.9H60.9z"/>
<path fill="#808080" stroke="#808080" stroke-width="0.25" stroke-miterlimit="10" d="M65.5,61.3L65.5,61.3c0-0.6-0.4-0.9-1.1-0.9
	c-0.6,0-1,0.3-1,0.8c0,0.5,0.2,0.7,1.2,0.9c0.7,0.2,1.1,0.4,1.3,0.6c0.3,0.3,0.4,0.7,0.4,1.1c0,1-0.8,1.6-2,1.6
	c-1.3,0-2-0.6-2.1-1.7h0.9c0.1,0.6,0.5,1,1.2,1c0.6,0,1-0.3,1-0.8c0-0.5-0.3-0.7-1.3-1c-1.2-0.3-1.7-0.8-1.7-1.7
	c0-1,0.8-1.6,1.9-1.6c1.2,0,1.9,0.6,1.9,1.6H65.5z"/>
</svg>
